<?xml version="1.0" encoding="UTF-8" standalone="no"?>
<!-- Created with Inkscape (http://www.inkscape.org/) -->

<svg
   width="5760"
   height="1080"
   viewBox="0 0 4320 810"
   version="1.1"
   id="svg262"
   inkscape:export-filename="bg.svg"
   inkscape:export-xdpi="96"
   inkscape:export-ydpi="96"
   sodipodi:docname="bg.svg"
   inkscape:version="1.2.1 (9c6d41e410, 2022-07-14)"
   xmlns:inkscape="http://www.inkscape.org/namespaces/inkscape"
   xmlns:sodipodi="http://sodipodi.sourceforge.net/DTD/sodipodi-0.dtd"
   xmlns="http://www.w3.org/2000/svg"
   xmlns:svg="http://www.w3.org/2000/svg"
   xmlns:rdf="http://www.w3.org/1999/02/22-rdf-syntax-ns#"
   xmlns:cc="http://creativecommons.org/ns#"
   xmlns:dc="http://purl.org/dc/elements/1.1/">
  <defs
     id="defs256" />
  <sodipodi:namedview
     id="base"
     pagecolor="#ffffff"
     bordercolor="#000000"
     borderopacity="0.3"
     inkscape:pageopacity="0.0"
     inkscape:pageshadow="2"
     inkscape:zoom="0.24748737"
     inkscape:cx="2018.2848"
     inkscape:cy="395.9798"
     inkscape:document-units="pt"
     inkscape:current-layer="g5257"
     inkscape:showpageshadow="2"
     inkscape:pagecheckerboard="0"
     inkscape:deskcolor="#d1d1d1"
     showgrid="false"
     inkscape:window-width="2560"
     inkscape:window-height="1377"
     inkscape:window-x="1072"
     inkscape:window-y="166"
     inkscape:window-maximized="1" />
  <metadata
     id="metadata259">
    <rdf:RDF>
      <cc:Work
         rdf:about="">
        <dc:format>image/svg+xml</dc:format>
        <dc:type
           rdf:resource="http://purl.org/dc/dcmitype/StillImage" />
      </cc:Work>
    </rdf:RDF>
  </metadata>
  <g
     inkscape:label="Layer 1 copy copy"
     inkscape:groupmode="layer"
     id="g5257">
    <path
       style="fill:#555050;fill-opacity:1;stroke:none;stroke-width:0;stroke-linecap:round;stroke-linejoin:round;stroke-dasharray:none;paint-order:fill markers stroke"
       d="m 3885.9848,733.37079 259.1041,-589.42405 293.9544,589.42405 z"
       id="path5241" />
    <path
       style="fill:#555050;fill-opacity:1;stroke:none;stroke-width:0;stroke-linecap:round;stroke-linejoin:round;stroke-dasharray:none;paint-order:fill markers stroke"
       d="m 3702.6421,733.37079 151.5228,-294.71203 151.5229,294.71203 z"
       id="path5243" />
    <path
       style="fill:#555050;fill-opacity:1;stroke:none;stroke-width:0;stroke-linecap:round;stroke-linejoin:round;stroke-dasharray:none;paint-order:fill markers stroke"
       d="m 3785.9797,733.37079 156.0685,-227.28437 151.5229,227.28437 z"
       id="path5245" />
    <path
       style="fill:#555050;fill-opacity:1;stroke:none;stroke-width:0;stroke-linecap:round;stroke-linejoin:round;stroke-dasharray:none;paint-order:fill markers stroke"
       d="M 3785.9797,733.37079 3702.6421,533.36054 3597.375,733.37079 Z"
       id="path5247" />
    <path
       style="fill:#555050;fill-opacity:1;stroke:none;stroke-width:0;stroke-linecap:round;stroke-linejoin:round;stroke-dasharray:none;paint-order:fill markers stroke"
       d="M 3654.9124,733.37079 3526.1179,438.65876 3359.4428,733.37079 Z"
       id="path5249" />
    <path
       style="fill:#555050;fill-opacity:1;stroke:none;stroke-width:0;stroke-linecap:round;stroke-linejoin:round;stroke-dasharray:none;paint-order:fill markers stroke"
       d="M 3446.5684,733.37079 3205.647,195.46452 2894.2675,733.37079 Z"
       id="path5251" />
    <path
       style="fill:#555050;fill-opacity:1;stroke:none;stroke-width:0;stroke-linecap:round;stroke-linejoin:round;stroke-dasharray:none;paint-order:fill markers stroke"
       d="M 3170.4179,733.37079 2924.5178,405 2633.0893,733.37079 Z"
       id="path5253" />
  </g>
  <g
     inkscape:label="Layer 1"
     inkscape:groupmode="layer"
     id="layer1" />
  <g
     inkscape:label="Layer 1 copy"
     inkscape:groupmode="layer"
     id="g5237">
    <path
       id="rect5219"
       style="fill:#555050;stroke-width:0;stroke-linecap:round;stroke-linejoin:round;paint-order:fill markers stroke"
       d="m 3.9375,733.37079 h 1437.375 v 76.6635 H 3.9375 Z m 1437.375,0 h 1437.375 v 76.6635 h -1437.375 z m 1437.375,0 h 1437.375 v 76.6635 h -1437.375 z" />
    <path
       style="fill:#555050;fill-opacity:1;stroke:none;stroke-width:0;stroke-linecap:round;stroke-linejoin:round;stroke-dasharray:none;paint-order:fill markers stroke"
       d="m 1011.2348,733.37078 259.1041,-589.42405 293.9544,589.42405 z"
       id="path5221" />
    <path
       style="fill:#555050;fill-opacity:1;stroke:none;stroke-width:0;stroke-linecap:round;stroke-linejoin:round;stroke-dasharray:none;paint-order:fill markers stroke"
       d="M 827.8921,733.37078 979.4149,438.65875 1130.9378,733.37078 Z"
       id="path5223" />
    <path
       style="fill:#555050;fill-opacity:1;stroke:none;stroke-width:0;stroke-linecap:round;stroke-linejoin:round;stroke-dasharray:none;paint-order:fill markers stroke"
       d="m 911.2297,733.37078 156.0685,-227.28437 151.5229,227.28437 z"
       id="path5225" />
    <path
       style="fill:#555050;fill-opacity:1;stroke:none;stroke-width:0;stroke-linecap:round;stroke-linejoin:round;stroke-dasharray:none;paint-order:fill markers stroke"
       d="M 911.2297,733.37078 827.8921,533.36053 722.625,733.37078 Z"
       id="path5227" />
    <path
       style="fill:#555050;fill-opacity:1;stroke:none;stroke-width:0;stroke-linecap:round;stroke-linejoin:round;stroke-dasharray:none;paint-order:fill markers stroke"
       d="M 780.1624,733.37078 651.3679,438.65875 484.6928,733.37078 Z"
       id="path5229" />
    <path
       style="fill:#555050;fill-opacity:1;stroke:none;stroke-width:0;stroke-linecap:round;stroke-linejoin:round;stroke-dasharray:none;paint-order:fill markers stroke"
       d="M 571.8184,733.37078 330.897,195.46451 19.5175,733.37078 Z"
       id="path5231" />
    <path
       style="fill:#555050;fill-opacity:1;stroke:none;stroke-width:0;stroke-linecap:round;stroke-linejoin:round;stroke-dasharray:none;paint-order:fill markers stroke"
       d="M 295.6679,733.37078 49.7678,404.99999 -241.6607,733.37078 Z"
       id="path5233" />
    <path
       style="fill:#555050;fill-opacity:1;stroke:none;stroke-width:0;stroke-linecap:round;stroke-linejoin:round;stroke-dasharray:none;paint-order:fill markers stroke"
       d="m 2448.6098,733.37079 259.1041,-589.42405 293.9544,589.42405 z"
       id="path3419" />
    <path
       style="fill:#555050;fill-opacity:1;stroke:none;stroke-width:0;stroke-linecap:round;stroke-linejoin:round;stroke-dasharray:none;paint-order:fill markers stroke"
       d="m 2265.2671,733.37079 151.5228,-294.71203 151.5229,294.71203 z"
       id="path3421" />
    <path
       style="fill:#555050;fill-opacity:1;stroke:none;stroke-width:0;stroke-linecap:round;stroke-linejoin:round;stroke-dasharray:none;paint-order:fill markers stroke"
       d="m 2348.6047,733.37079 156.0685,-227.28437 151.5229,227.28437 z"
       id="path3423" />
    <path
       style="fill:#555050;fill-opacity:1;stroke:none;stroke-width:0;stroke-linecap:round;stroke-linejoin:round;stroke-dasharray:none;paint-order:fill markers stroke"
       d="M 2348.6047,733.37079 2265.2671,533.36054 2160,733.37079 Z"
       id="path3435" />
    <path
       style="fill:#555050;fill-opacity:1;stroke:none;stroke-width:0;stroke-linecap:round;stroke-linejoin:round;stroke-dasharray:none;paint-order:fill markers stroke"
       d="M 2217.5374,733.37079 2088.7429,438.65876 1922.0678,733.37079 Z"
       id="path3437" />
    <path
       style="fill:#555050;fill-opacity:1;stroke:none;stroke-width:0;stroke-linecap:round;stroke-linejoin:round;stroke-dasharray:none;paint-order:fill markers stroke"
       d="M 2009.1934,733.37079 1768.272,195.46452 1456.8925,733.37079 Z"
       id="path3439" />
    <path
       style="fill:#555050;fill-opacity:1;stroke:none;stroke-width:0;stroke-linecap:round;stroke-linejoin:round;stroke-dasharray:none;paint-order:fill markers stroke"
       d="M 1733.0429,733.37079 1487.1428,405 1195.7143,733.37079 Z"
       id="path3488" />
  </g>
  <path
     id="path5235"
     style="fill:#1b8a1b;fill-opacity:1;stroke:none;stroke-width:0;stroke-linecap:round;stroke-linejoin:round;stroke-dasharray:none;paint-order:fill markers stroke"
     d="M 1441.3125,733.37078 V 586.01476 c -92.1675,1.94328 -167.6172,68.16906 -278.3261,29.6073 -86.7152,-30.20435 -180.8733,15.09788 -266.488,17.22135 -171.2293,4.24695 -327.117,-9.0793 -452.7635,-58.61054 C 232.5212,490.97013 92.657,584.24203 3.9375,586.01476 v 147.35602 z m 2874.75,1e-5 V 586.01477 c -92.1675,1.94328 -167.6172,68.16906 -278.3261,29.6073 -86.7152,-30.20435 -180.8733,15.09788 -266.488,17.22135 -171.2293,4.24695 -327.117,-9.0793 -452.7635,-58.61054 -211.2137,-83.26274 -351.0779,10.00916 -439.7974,11.78189 v 147.35602 z m -1437.375,0 V 586.01477 c -92.1675,1.94328 -167.6172,68.16906 -278.3261,29.6073 -86.7152,-30.20435 -180.8733,15.09788 -266.488,17.22135 -171.2293,4.24695 -327.117,-9.0793 -452.7635,-58.61054 -211.2137,-83.26274 -351.0779,10.00916 -439.7974,11.78189 v 147.35602 z"
     inkscape:label="green" />
</svg>
